HIERARCHY
ROOT Hip
{
  OFFSET 0.0 0.0 0.0
  CHANNELS 6 Xposition Yposition Zposition Xrotation Yrotation Zrotation
  JOINT LowerSpine
  {
    OFFSET 0.0 0.061367 -0.03653
    CHANNELS 3 Xrotation Yrotation Zrotation
    JOINT MiddleSpine
    {
      OFFSET 0.0 0.056002 0.002633
      CHANNELS 3 Xrotation Yrotation Zrotation
      JOINT Chest
      {
        OFFSET 0.0 0.069296 -0.013882
        CHANNELS 3 Xrotation Yrotation Zrotation
        JOINT Neck
        {
          OFFSET 0.0 0.156156 -0.002923
          CHANNELS 3 Xrotation Yrotation Zrotation
          JOINT Head
          {
            OFFSET 0.0 0.088183 0.023986
            CHANNELS 3 Xrotation Yrotation Zrotation
            End Site
            {
              OFFSET 1e-06 0.123215 0.003678
            }
          }
        }
        JOINT LClavicle
        {
          OFFSET 0.014189 0.150698 0.046467
          CHANNELS 3 Xrotation Yrotation Zrotation
          JOINT LShoulder
          {
            OFFSET 0.082893 0.021616 -0.034976
            CHANNELS 3 Xrotation Yrotation Zrotation
            JOINT LForearm
            {
              OFFSET 0.195645 -0.000695 -0.001695
              CHANNELS 3 Xrotation Yrotation Zrotation
              JOINT LHand
              {
                OFFSET 0.163209 0.000474 -0.000977
                CHANNELS 3 Xrotation Yrotation Zrotation
                End Site
                {
                  OFFSET 0.0 0.006864 0.0
                }
              }
            }
          }
        }
        JOINT RClavicle
        {
          OFFSET -0.014189 0.150698 0.046467
          CHANNELS 3 Xrotation Yrotation Zrotation
          JOINT RShoulder
          {
            OFFSET -0.082908 0.021619 -0.034982
            CHANNELS 3 Xrotation Yrotation Zrotation
            JOINT RForearm
            {
              OFFSET -0.195645 -0.000695 -0.001695
              CHANNELS 3 Xrotation Yrotation Zrotation
              JOINT RHand
              {
                OFFSET -0.163209 0.000474 -0.000977
                CHANNELS 3 Xrotation Yrotation Zrotation
                End Site
                {
                  OFFSET 0.0 0.006864 0.0
                }
              }
            }
          }
        }
      }
    }
  }
  JOINT RThigh
  {
    OFFSET -0.072558 0.02774 -0.005953
    CHANNELS 3 Xrotation Yrotation Zrotation
    JOINT RShin
    {
      OFFSET -0.005253 -0.285537 0.0
      CHANNELS 3 Xrotation Yrotation Zrotation
      JOINT RFoot
      {
        OFFSET 0.0 -0.28038 0.0
        CHANNELS 3 Xrotation Yrotation Zrotation
        JOINT RToe
        {
          OFFSET 0.0 -0.030816 0.064441
          CHANNELS 3 Xrotation Yrotation Zrotation
          End Site
          {
            OFFSET 0.0 0.0 0.043231
          }
        }
      }
    }
  }
  JOINT LThigh
  {
    OFFSET 0.072557 0.027741 -0.005953
    CHANNELS 3 Xrotation Yrotation Zrotation
    JOINT LShin
    {
      OFFSET 0.005253 -0.285539 0.0
      CHANNELS 3 Xrotation Yrotation Zrotation
      JOINT LFoot
      {
        OFFSET 0.0 -0.28038 0.0
        CHANNELS 3 Xrotation Yrotation Zrotation
        JOINT LToe
        {
          OFFSET 0.0 -0.030816 0.064441
          CHANNELS 3 Xrotation Yrotation Zrotation
          End Site
          {
            OFFSET 0.0 0.0 0.043231
          }
        }
      }
    }
  }
}
MOTION
Frames: 9
Frame Time: 0.03333333333333333
0.125373 0.561163 1.636574 12.513221 -38.995544 9.079484 -3.834619 6.582583 -6.662569 -0.106167 -8.047565 -5.964428 -11.534624 -14.020777 7.666311 -2.852262 -9.65315 -2.687376 -8.217655 8.723082 1.717951 -2.254402 10.421329 -12.963045 19.603018 -33.034145 -50.02042 8.96165 -28.258158 -5.894979 -8.027234 -5.894271 4.521609 7.899806 2.68106 17.993559 23.934875 23.499142 54.625893 2.374804 19.246458 7.367225 9.877 3.030018 3.188311 -14.017896 -16.771811 3.186821 9.613565 -11.088436 7.380235 -0.330268 6.42377 12.260142 4.114217 -7.565103 -5.506974 -13.518706 -2.494899 -0.899962 33.816193 0.595392 4.551332 0.00704 4.863178 -8.04357 -10.317966 6.837995 3.049013 
0.116446 0.556474 1.637998 11.701576 -39.219257 8.098375 -3.669165 6.944124 -6.329113 0.15736 -7.668141 -6.331958 -11.073675 -13.163656 7.579887 -3.139501 -9.735013 -2.639766 -7.91175 9.045932 1.790271 -2.765689 9.897112 -12.962234 20.970291 -33.986183 -49.553795 10.865172 -24.538115 -6.182218 -8.131628 -6.041302 4.622128 7.936236 3.764575 17.970039 22.961977 26.400818 53.227657 2.368654 18.96715 7.745183 10.001611 3.040005 3.331697 -11.214393 -15.726844 3.013209 8.230367 -10.270701 7.547452 -1.556379 6.20783 12.358809 3.894592 -7.889498 -5.668632 -16.869001 -4.050954 -0.198987 37.292942 -0.449374 4.999825 -0.231671 5.384757 -8.2922 -10.233656 7.085859 2.972676 
0.111651 0.559438 1.644649 10.70187 -40.452427 6.848722 -3.824663 7.434839 -5.879722 0.627284 -7.067501 -6.806106 -10.806191 -12.335869 7.555223 -3.810843 -9.977267 -2.6882 -7.420352 9.37943 1.778524 -3.431202 9.330713 -12.973008 22.26619 -34.462162 -49.478489 11.819701 -21.24898 -6.459735 -8.230955 -6.285877 4.651982 7.868567 4.653515 18.340847 21.746727 28.958637 51.495724 2.353939 18.758102 8.095179 10.133167 3.064367 3.493937 -9.474635 -13.63207 2.967307 7.356946 -8.267823 6.939479 -2.835698 6.318866 12.343441 3.439421 -8.40906 -5.872599 -21.338469 -5.012455 -0.525019 39.159515 -1.186806 5.277954 -0.532842 5.346277 -8.523069 -9.965898 7.377917 2.990645 
0.108831 0.559121 1.646681 11.224886 -43.764908 7.780095 -4.33476 7.631983 -5.155077 0.601315 -6.301921 -7.111756 -11.59618 -11.246149 7.151932 -4.314735 -9.751323 -2.655631 -6.853703 9.484179 1.614544 -3.686842 8.728721 -13.190966 23.747633 -33.432117 -50.033905 11.903563 -19.127514 -6.3995 -8.070769 -6.384745 4.599791 7.963301 5.112565 18.483122 20.59425 29.788748 50.313812 2.072749 18.708975 7.877029 10.028316 2.911153 3.479774 -10.050866 -10.157397 2.892581 7.780571 -5.269955 5.868997 -4.300142 6.171053 11.984981 2.563858 -8.679686 -6.028975 -26.639614 -5.350656 -1.788087 37.968491 -2.207009 5.38517 -0.63746 4.60876 -8.611597 -9.538824 7.385398 2.93954 
0.100455 0.556625 1.646682 12.477327 -49.67477 11.35936 -4.286212 7.747991 -4.875065 -0.184852 -5.670034 -7.243272 -12.727301 -9.8055 7.025555 -4.474445 -9.132394 -2.600239 -6.28848 9.451641 1.445688 -3.666928 8.230879 -12.730164 24.905867 -30.905848 -52.247608 10.206377 -18.327322 -6.607512 -7.886555 -6.308718 4.457161 8.319483 5.290371 18.128986 19.844496 28.484919 50.233437 0.617496 19.758438 7.467483 9.725706 2.62435 3.461536 -9.621718 -6.638999 2.685064 8.7319 -2.10296 5.113365 -5.355196 6.127703 11.746201 1.717638 -8.645471 -6.108873 -30.343235 -4.685918 -3.540728 33.613586 -3.188622 5.944947 -0.916021 4.285431 -8.194301 -9.117522 7.115656 2.882506 
0.088865 0.555147 1.650875 13.309969 -56.082317 14.226749 -4.507602 7.460603 -4.770533 -0.760482 -5.529918 -7.195265 -12.288659 -8.346658 7.629201 -3.945345 -8.45652 -2.803918 -5.953844 9.184808 1.318738 -3.07367 8.008889 -12.50728 24.759338 -29.292067 -54.630253 9.429839 -18.587164 -6.582576 -7.587975 -6.091904 4.265425 8.683487 4.7974 17.912088 18.345327 27.436661 50.772366 -1.289015 20.057821 7.09021 9.265431 2.393082 3.415943 -6.998975 -4.943616 2.349566 9.173 -0.860573 4.948343 -6.204546 5.753609 11.243114 1.2328 -8.218663 -6.104915 -31.531723 -3.589103 -5.02172 28.563091 -3.633936 6.797573 -0.368866 4.346635 -7.439805 -8.427929 6.776193 2.775644 
0.072402 0.553197 1.649579 15.814644 -60.890453 18.267937 -4.822736 7.252886 -4.639247 -1.377288 -5.686288 -7.125099 -11.95127 -7.083458 8.178424 -2.955009 -7.939302 -3.039143 -5.945696 9.055243 1.340832 -2.698919 8.091983 -12.158464 25.296835 -27.339851 -55.788723 9.147637 -19.631351 -6.493702 -7.439568 -6.033795 4.215584 8.580803 3.906601 18.191217 17.436291 26.54258 50.836926 -2.633966 20.925627 6.991634 9.106918 2.418996 3.410936 -5.623606 -3.74353 2.14733 10.481338 -0.384264 5.18908 -6.923141 5.301378 10.741268 0.877202 -7.913491 -6.109835 -33.044708 -3.258842 -6.141375 25.904472 -4.075792 7.736753 0.444414 4.467884 -6.98321 -8.131723 6.638569 2.784848 
0.056528 0.551881 1.647755 21.758001 -66.566643 25.190256 -5.164002 7.081008 -4.308491 -1.598951 -5.809125 -6.889243 -11.264228 -5.974037 8.841177 -2.345588 -7.538351 -3.257587 -5.847756 8.797611 1.37483 -2.35213 8.311924 -12.135303 25.63619 -25.285381 -56.913933 8.60654 -20.788328 -6.410018 -7.245019 -5.92288 4.159084 8.172354 2.789876 18.847176 16.572695 25.738529 50.058689 -2.809409 23.001688 7.107069 8.943673 2.448416 3.290696 -4.451868 -3.358228 1.966783 11.433642 -0.580905 5.702118 -7.026413 4.713786 10.182941 0.700754 -7.633531 -5.942126 -33.303905 -3.034767 -6.215168 22.296412 -3.895784 8.029609 1.62829 4.518226 -6.62117 -7.916233 6.461267 2.789344 
0.041084 0.550596 1.6462 28.345589 -70.386139 32.376247 -5.649969 7.146808 -3.818168 -1.742888 -5.662543 -6.908077 -10.478081 -5.23208 9.094236 -1.915657 -7.378442 -3.465282 -5.776308 8.648641 1.437005 -2.042415 8.668054 -12.325771 25.683853 -23.843508 -57.562042 8.030613 -21.494041 -6.209973 -7.091442 -5.946655 4.165384 7.9355 1.893384 19.701883 15.751975 25.290794 49.507126 -3.051197 24.47154 7.254576 8.894468 2.495561 3.207039 -3.691619 -3.347009 1.977896 12.53665 -0.842454 5.753905 -6.802296 3.981866 9.880358 0.452976 -7.59953 -5.828407 -32.881752 -2.85355 -6.466813 19.210583 -3.727336 8.155683 2.58215 4.366621 -6.601974 -7.737967 6.414933 2.839697 
